<svg width="200" height="200" viewBox="0 0 200 200" fill="none" xmlns="http://www.w3.org/2000/svg">
<path d="M125 141.667V150C125 163.807 113.807 175 100 175C86.193 175 75.0002 163.807 75.0002 150V141.668M125 141.667L75.0002 141.668M125 141.667H158.334C162.936 141.667 166.667 137.936 166.667 133.333V128.451C166.667 126.241 165.788 124.122 164.225 122.559L159.969 118.302C158.922 117.255 158.334 115.833 158.334 114.351V83.3334C158.334 81.8631 158.28 80.4046 158.171 78.9675M75.0002 141.668L41.6668 141.668C37.0645 141.668 33.3335 137.934 33.3335 133.332V128.451C33.3335 126.241 34.2122 124.124 35.7749 122.561L40.0311 118.299C41.0784 117.251 41.6668 115.835 41.6668 114.354V83.3332C41.6668 51.1168 67.7835 25.0001 100 25.0001C105.93 25.0001 111.654 25.8849 117.045 27.5298M158.171 78.9675C168.224 73.2276 175 62.4052 175 50.0001C175 31.5906 160.076 16.6667 141.667 16.6667C131.915 16.6667 123.141 20.8545 117.045 27.5298M158.171 78.9675C153.305 81.7458 147.671 83.3334 141.667 83.3334C123.257 83.3334 108.334 68.4096 108.334 50.0001C108.334 41.3426 111.634 33.4559 117.045 27.5298M158.171 78.9675C158.171 78.9675 158.171 78.9676 158.171 78.9675ZM117.045 27.5298C117.049 27.531 117.053 27.5322 117.057 27.5334" stroke="white" stroke-width="2" stroke-linecap="round" stroke-linejoin="round"/>
</svg>

