<svg width="439" height="140" viewBox="0 0 439 140" fill="none" xmlns="http://www.w3.org/2000/svg">
<path d="M83.4 139.95C75.15 139.95 68.5 139.1 63.45 137.4C58.4 135.7 54.425 132.9 51.525 129C48.625 125.15 46.25 119.95 44.4 113.4L57.75 109.95H65.4C66.25 112.9 67.45 115.075 69 116.475C70.55 117.925 72.725 118.875 75.525 119.325C78.325 119.775 82 120 86.55 120C88.65 120 90.725 119.775 92.775 119.325C94.825 118.875 96.6 118.4 98.1 117.9V136.65C96.75 137.3 94.85 138 92.4 138.75C89.95 139.55 86.95 139.95 83.4 139.95ZM51.9 115.2C40.9 115.4 31.5 113.175 23.7 108.525C15.95 103.825 10.05 97.15 6 88.5C2 79.8 0.1 69.55 0.3 57.75C0.55 44.55 2.975 33.875 7.575 25.725C12.225 17.525 18.55 11.5 26.55 7.64999C34.55 3.74999 43.7 1.65 54 1.34999C64.55 1.05 73.6 3.2 81.15 7.8C88.7 12.35 94.45 18.925 98.4 27.525C102.4 36.125 104.3 46.3 104.1 58.05C103.85 71.25 101.5 82.025 97.05 90.375C92.6 98.725 86.5 104.9 78.75 108.9C71 112.9 62.05 115 51.9 115.2ZM52.35 95.1C59.55 95.1 65.225 92.2 69.375 86.4C73.525 80.55 75.6 70.85 75.6 57.3C75.6 50.3 74.8 44.15 73.2 38.85C71.6 33.55 69.175 29.425 65.925 26.475C62.675 23.525 58.55 22.05 53.55 22.05C49 22.05 44.85 23.175 41.1 25.425C37.35 27.675 34.35 31.45 32.1 36.75C29.9 42.05 28.8 49.3 28.8 58.5C28.8 65.6 29.675 71.9 31.425 77.4C33.175 82.9 35.775 87.225 39.225 90.375C42.725 93.525 47.1 95.1 52.35 95.1ZM168.48 115.2C156.98 115.2 147.78 113.2 140.88 109.2C133.98 105.2 129.005 99.6 125.955 92.4C122.905 85.2 121.38 76.8 121.38 67.2L121.68 2.55H149.43L149.13 63.9C149.08 71.7 149.755 77.725 151.155 81.975C152.605 86.175 154.73 89.1 157.53 90.75C160.38 92.35 163.88 93.15 168.03 93.15C172.23 93.15 175.73 92.3 178.53 90.6C181.33 88.9 183.43 85.925 184.83 81.675C186.23 77.425 186.93 71.5 186.93 63.9V2.55H214.53V67.65C214.53 82.55 210.855 94.2 203.505 102.6C196.205 111 184.53 115.2 168.48 115.2ZM237.92 114V2.55H266.12V114H237.92ZM291.645 114V2.55H319.245V91.5H356.895V114H291.645ZM373.236 114V2.55H400.836V91.5H438.486V114H373.236Z" fill="url(#paint0_linear_129_11)"/>
<defs>
<linearGradient id="paint0_linear_129_11" x1="-6" y1="77" x2="587.5" y2="77" gradientUnits="userSpaceOnUse">
<stop stop-color="#2A3174"/>
<stop offset="0.3" stop-color="#6F377D"/>
<stop offset="0.665" stop-color="#A2318F"/>
<stop offset="1" stop-color="#300E3B"/>
</linearGradient>
</defs>
</svg>
