<svg width="200" height="200" viewBox="0 0 200 200" fill="none" xmlns="http://www.w3.org/2000/svg">
<path d="M27.0832 79.1667H72.9165C74.8525 79.1667 75.8206 79.1661 76.6256 79.006C79.9313 78.3484 82.5149 75.7649 83.1724 72.4591C83.3326 71.6541 83.3326 70.6861 83.3326 68.75C83.3326 66.814 83.3326 65.8461 83.1724 65.0411C82.5149 61.7354 79.9313 59.151 76.6256 58.4935C75.8206 58.3334 74.8526 58.3334 72.9165 58.3334H27.0832C25.1471 58.3334 24.1793 58.3334 23.3743 58.4935C20.0685 59.151 17.4842 61.7354 16.8266 65.0411C16.6665 65.8461 16.6665 66.8142 16.6665 68.7502C16.6665 70.6863 16.6665 71.6539 16.8266 72.4589C17.4842 75.7647 20.0685 78.3484 23.3743 79.006C24.1793 79.1661 25.1471 79.1667 27.0832 79.1667Z" stroke="white" stroke-width="2" stroke-linecap="round" stroke-linejoin="round"/>
<path d="M27.0832 41.6667H72.9165C74.8525 41.6667 75.8206 41.6661 76.6256 41.506C79.9313 40.8484 82.5149 38.2649 83.1724 34.9591C83.3326 34.1541 83.3326 33.1861 83.3326 31.25C83.3326 29.314 83.3326 28.3461 83.1724 27.5411C82.5149 24.2354 79.9313 21.6511 76.6256 20.9935C75.8206 20.8334 74.8526 20.8334 72.9165 20.8334H27.0832C25.1471 20.8334 24.1793 20.8334 23.3743 20.9935C20.0685 21.6511 17.4842 24.2354 16.8266 27.5411C16.6665 28.3461 16.6665 29.3142 16.6665 31.2502C16.6665 33.1863 16.6665 34.154 16.8266 34.9589C17.4842 38.2647 20.0685 40.8484 23.3743 41.506C24.1793 41.6661 25.1471 41.6667 27.0832 41.6667Z" stroke="white" stroke-width="2" stroke-linecap="round" stroke-linejoin="round"/>
</svg>
