<svg width="502" height="502" viewBox="0 0 502 502" fill="none" xmlns="http://www.w3.org/2000/svg">
<path d="M79.1257 501H422.879C437.399 501 444.66 500.995 450.697 499.622C475.491 493.986 494.867 471.841 499.799 443.506C501 436.607 501 428.309 501 411.714C501 395.12 501 386.824 499.799 379.924C494.867 351.589 475.491 329.437 450.697 323.801C444.66 322.429 437.399 322.429 422.879 322.429H79.1257C64.6051 322.429 57.3462 322.429 51.3087 323.801C26.5153 329.437 7.13264 351.589 2.20093 379.924C1 386.824 1 395.121 1 411.716C1 428.311 1 436.605 2.20093 443.505C7.13264 471.84 26.5153 493.986 51.3087 499.622C57.3461 500.995 64.6052 501 79.1257 501Z" stroke="white" stroke-width="2" stroke-linecap="round" stroke-linejoin="round"/>
<path d="M79.1257 179.571H422.879C437.399 179.571 444.66 179.566 450.697 178.194C475.491 172.558 494.867 150.413 499.799 122.078C501 115.178 501 106.88 501 90.2857C501 73.691 501 65.395 499.799 58.4951C494.867 30.1601 475.491 8.00867 450.697 2.37248C444.66 1 437.399 1 422.879 1H79.1257C64.6051 1 57.3462 1 51.3087 2.37248C26.5153 8.00867 7.13264 30.1601 2.20093 58.4951C1 65.395 1 73.6925 1 90.2873C1 106.882 1 115.176 2.20093 122.076C7.13264 150.411 26.5153 172.558 51.3087 178.194C57.3461 179.566 64.6052 179.571 79.1257 179.571Z" stroke="white" stroke-width="2" stroke-linecap="round" stroke-linejoin="round"/>
</svg>
